<svg xmlns="http://www.w3.org/2000/svg" width="512.000000pt" height="512.000000pt" viewBox="0 0 512.000000 512.000000" preserveAspectRatio="xMidYMid meet"><g transform="translate(0.000000,512.000000) scale(0.100000,-0.100000)" fill="#000000" stroke="none"><path d="M1930 4754 c-270 -31 -490 -100 -699 -218 -404 -229 -701 -613 -817 -1055 -29 -111 -54 -294 -54 -392 0 -119 -66 -272 -209 -483 -41 -61 -90 -145 -110 -186 -32 -68 -36 -83 -36 -160 0 -73 4 -92 27 -136 29 -55 90 -114 150 -145 42 -21 160 -54 230 -64 l46 -6 4 -272 c4 -265 5 -274 30 -341 65 -171 205 -298 373 -339 35 -9 137 -18 245 -21 193 -7 300 -23 345 -52 51 -34 78 -115 95 -293 17 -174 18 -177 51 -205 l31 -26 928 0 928 0 31 26 c33 28 34 31 51 205 17 177 44 259 94 293 47 30 147 45 341 52 112 4 214 12 250 21 168 41 308 168 373 339 25 67 26 76 30 341 l4 272 46 6 c71 10 189 43 233 66 59 30 117 86 147 143 23 44 27 63 27 136 0 77 -4 92 -36 160 -20 41 -70 125 -111 186 -86 128 -169 284 -192 363 -9 30 -16 86 -16 125 0 39 -7 119 -15 178 -49 374 -212 703 -480 973 -264 267 -560 421 -940 492 -64 12 -146 17 -285 17 -194 0 -286 -10 -427 -48 -46 -12 -60 -12 -110 1 -120 31 -224 44 -378 48 -88 2 -176 1 -195 -1z m273 -200 c4 -4 -19 -22 -51 -41 -186 -112 -394 -304 -514 -473 -125 -177 -219 -379 -268 -580 -74 -306 -63 -628 34 -924 44 -133 96 -242 190 -401 205 -345 303 -625 335 -959 12 -122 14 -406 4 -534 l-6 -83 -86 3 -86 3 -3 35 c-6 78 -34 224 -53 274 -52 141 -160 219 -337 246 -37 6 -155 14 -262 18 l-195 8 -63 34 c-74 39 -115 83 -151 160 -21 45 -26 73 -29 162 l-4 108 34 0 c54 0 146 28 240 72 102 48 118 63 125 115 4 32 0 45 -21 70 -42 50 -73 51 -168 5 -86 -42 -147 -62 -185 -62 -23 0 -23 2 -23 115 0 112 -1 115 -28 146 -28 31 -32 32 -135 40 -233 16 -320 75 -287 194 7 24 54 108 105 185 183 277 232 400 246 615 19 304 92 535 242 763 256 390 644 625 1132 685 54 7 261 7 268 1z m1112 -19 c125 -22 307 -85 426 -146 356 -183 626 -500 747 -879 41 -130 61 -239 71 -405 14 -215 63 -338 246 -615 51 -77 98 -161 105 -185 33 -119 -54 -178 -287 -194 -103 -8 -107 -9 -135 -40 -27 -30 -28 -34 -28 -144 l0 -113 -85 -16 c-103 -19 -255 -88 -292 -132 -52 -62 -6 -156 75 -156 21 0 47 7 59 15 36 25 155 72 202 80 l43 7 -4 -108 c-3 -85 -9 -120 -26 -158 -34 -75 -84 -129 -154 -166 l-63 -34 -195 -8 c-224 -9 -307 -20 -385 -49 -154 -57 -230 -179 -256 -408 -6 -53 -13 -102 -15 -109 -2 -8 -29 -12 -87 -12 l-84 0 -7 92 c-3 50 -6 140 -6 201 l0 109 -34 34 c-38 38 -70 43 -115 19 -49 -25 -55 -56 -48 -266 l6 -189 -428 0 -428 0 5 233 c12 590 -85 970 -373 1448 -117 193 -174 334 -217 533 -29 136 -31 416 -5 551 97 481 396 869 832 1080 165 79 175 81 248 55 222 -81 466 -252 619 -436 172 -208 282 -436 335 -699 26 -135 24 -415 -5 -551 -43 -198 -100 -339 -215 -531 -76 -126 -190 -353 -205 -404 -24 -90 73 -165 147 -113 13 9 47 67 76 130 29 62 95 184 146 271 187 318 261 550 276 863 17 363 -98 745 -315 1050 -122 171 -327 360 -514 473 -32 19 -54 38 -50 42 11 12 299 -2 397 -20z"></path><path d="M838 2915 c-85 -47 -51 -185 45 -185 43 0 92 38 100 77 6 31 -12 81 -36 101 -24 20 -79 24 -109 7z"></path><path d="M4193 2920 c-32 -13 -57 -57 -56 -98 1 -49 48 -92 99 -92 50 0 94 45 94 95 0 47 -13 71 -50 90 -32 17 -54 18 -87 5z"></path><path d="M3068 1464 c-85 -46 -51 -184 45 -184 42 0 92 37 101 75 9 36 -17 91 -53 109 -37 20 -58 20 -93 0z"></path></g></svg>